<svg xmlns="http://www.w3.org/2000/svg" viewBox="0 0 356.37 194.62"><defs><style>.cls-1{fill:#fff;}.cls-2{fill:#0d47a1;}</style></defs><g id="Camada_2" data-name="Camada 2"><g id="Camada_1-2" data-name="Camada 1"><path class="cls-1" d="M85.16,4.3a31,31,0,0,0-14-3H42.77V81.43H53.42V50.77H71.17a30.78,30.78,0,0,0,14-3,22.77,22.77,0,0,0,9.36-8.55A24.54,24.54,0,0,0,98,26.14a25,25,0,0,0-3.39-13.23A22.59,22.59,0,0,0,85.16,4.3ZM85.32,34a13.34,13.34,0,0,1-5.54,5.27,17.86,17.86,0,0,1-8.29,1.83H53.42V11H71.49a17.86,17.86,0,0,1,8.29,1.83A13.47,13.47,0,0,1,85.32,18a15.6,15.6,0,0,1,2,8A15.68,15.68,0,0,1,85.32,34Z"/><path class="cls-1" d="M154.7,30.71a25.65,25.65,0,0,0-8.5-6.24,28.89,28.89,0,0,0-25.87,1.62,28.67,28.67,0,0,0-10.11,10.7,31.36,31.36,0,0,0-3.77,15.49,32,32,0,0,0,3.77,15.54A28.11,28.11,0,0,0,120.6,78.74a28.47,28.47,0,0,0,15,4,29.58,29.58,0,0,0,10.86-1.93A27.26,27.26,0,0,0,155,75.57a21.22,21.22,0,0,0,5.33-7.26L152,64a21.1,21.1,0,0,1-6.46,6.89,17.09,17.09,0,0,1-9.79,2.69A18.76,18.76,0,0,1,126,70.94a17.66,17.66,0,0,1-6.89-7.42,19.81,19.81,0,0,1-2-8h44.35c.15-.93.27-1.87.38-2.8A22.92,22.92,0,0,0,162,50a29.34,29.34,0,0,0-1.88-10.38A28.37,28.37,0,0,0,154.7,30.71Zm-29.21,3a17.11,17.11,0,0,1,9.26-2.63,16.22,16.22,0,0,1,9,2.58,16.41,16.41,0,0,1,6,7,14.76,14.76,0,0,1,1.33,6.13H117.29a19.12,19.12,0,0,1,1.7-5.7A17.68,17.68,0,0,1,125.49,33.72Z"/><path class="cls-1" d="M221.34,31.2a23.78,23.78,0,0,0-7.21-6,26.12,26.12,0,0,0-12.8-3.07,27.5,27.5,0,0,0-14.73,4A29.18,29.18,0,0,0,176.32,37,31.41,31.41,0,0,0,172.5,52.5a31.53,31.53,0,0,0,3.77,15.38A28.32,28.32,0,0,0,186.6,78.74a27.76,27.76,0,0,0,14.73,4,27,27,0,0,0,12.86-3.06,20.53,20.53,0,0,0,7.47-6.73v8.5h9.79V0H221.34ZM218.81,63a19.17,19.17,0,0,1-6.88,7.37,19.07,19.07,0,0,1-19.53,0A19,19,0,0,1,185.63,63a22.06,22.06,0,0,1-2.48-10.48A22,22,0,0,1,185.63,42a18.86,18.86,0,0,1,6.83-7.31,19,19,0,0,1,19.47,0A19.28,19.28,0,0,1,218.81,42a21.6,21.6,0,0,1,2.53,10.55A21.63,21.63,0,0,1,218.81,63Z"/><path class="cls-1" d="M261.89,25.23a14,14,0,0,0-5.16,5.19v-7h-9.9v58H257V46.9q0-7,3.76-10.76a13.38,13.38,0,0,1,9.9-3.76h5.05V22.8h-3.55A20.1,20.1,0,0,0,261.89,25.23Z"/><path class="cls-1" d="M338,36.79a28.91,28.91,0,0,0-10.7-10.7A29.9,29.9,0,0,0,312,22.16,29.53,29.53,0,0,0,286.1,36.9a30,30,0,0,0-4,15.49,30.27,30.27,0,0,0,4,15.6A30.28,30.28,0,0,0,327,78.8,30.28,30.28,0,0,0,337.84,68a29.92,29.92,0,0,0,4.09-15.65A30.54,30.54,0,0,0,338,36.79Zm-9.25,26.14a19.05,19.05,0,0,1-6.89,7.42A18.36,18.36,0,0,1,312,73a18.15,18.15,0,0,1-9.73-2.69,19.4,19.4,0,0,1-6.94-7.42,21.67,21.67,0,0,1-2.58-10.54A21.07,21.07,0,0,1,295.35,42a19.67,19.67,0,0,1,6.94-7.31A18.15,18.15,0,0,1,312,32a18.36,18.36,0,0,1,9.84,2.69A19.31,19.31,0,0,1,328.75,42a21.48,21.48,0,0,1,2.53,10.44A22.09,22.09,0,0,1,328.75,62.93Z"/><path class="cls-1" d="M58.82,114.1a26,26,0,0,0-11.73-2.53,27.58,27.58,0,0,0-18.18,6.83,19.3,19.3,0,0,0-5.16,7.16l8.71,4.51a15.64,15.64,0,0,1,5.65-6.67,15.28,15.28,0,0,1,8.77-2.58,13.56,13.56,0,0,1,9.14,3,9.68,9.68,0,0,1,3.44,7.69v2.65l-19.68,3.27a30,30,0,0,0-10.71,3.66,16.22,16.22,0,0,0-8.33,14.63,15.07,15.07,0,0,0,2.47,8.55A16.65,16.65,0,0,0,30.1,170a23.39,23.39,0,0,0,10.11,2.09,27.29,27.29,0,0,0,9.09-1.45,23.41,23.41,0,0,0,7.31-4.09,21.65,21.65,0,0,0,3.18-3.25v7.5h9.78V131.47a19,19,0,0,0-2.85-10.33A19.37,19.37,0,0,0,58.82,114.1ZM57.2,155a16.52,16.52,0,0,1-6.29,6.29,18.73,18.73,0,0,1-9.52,2.32,10.8,10.8,0,0,1-7.15-2.37,7.39,7.39,0,0,1-2.85-5.92,8.56,8.56,0,0,1,2.52-6.29q2.54-2.52,8.13-3.5l17.42-3v3.79A17.3,17.3,0,0,1,57.2,155Z"/><path class="cls-1" d="M100,114.64a14,14,0,0,0-5.17,5.2v-7H85v58H95.07V136.31q0-7,3.76-10.75a13.39,13.39,0,0,1,9.9-3.77h5.06v-9.57h-3.55A20.05,20.05,0,0,0,100,114.64Z"/><path class="cls-1" d="M158.32,114.1a26,26,0,0,0-11.73-2.53,27.58,27.58,0,0,0-18.18,6.83,19.41,19.41,0,0,0-5.16,7.16l8.71,4.51a15.71,15.71,0,0,1,5.65-6.67,15.31,15.31,0,0,1,8.77-2.58,13.54,13.54,0,0,1,9.14,3,9.65,9.65,0,0,1,3.44,7.69v2.65l-19.68,3.27a29.9,29.9,0,0,0-10.7,3.66,16.21,16.21,0,0,0-8.34,14.63,15.07,15.07,0,0,0,2.47,8.55A16.71,16.71,0,0,0,129.6,170a23.39,23.39,0,0,0,10.11,2.09,27.25,27.25,0,0,0,9.09-1.45,23.41,23.41,0,0,0,7.31-4.09,21.65,21.65,0,0,0,3.18-3.25v7.5h9.79V131.47a19,19,0,0,0-2.85-10.33A19.4,19.4,0,0,0,158.32,114.1ZM156.71,155a16.62,16.62,0,0,1-6.3,6.29,18.73,18.73,0,0,1-9.52,2.32,10.8,10.8,0,0,1-7.15-2.37,7.39,7.39,0,0,1-2.85-5.92,8.53,8.53,0,0,1,2.53-6.29q2.52-2.52,8.12-3.5l17.42-3v3.79A17.4,17.4,0,0,1,156.71,155Z"/><path class="cls-1" d="M221.36,147.18a17.65,17.65,0,0,1-1.78,8.17,12.44,12.44,0,0,1-5,5.27,15.32,15.32,0,0,1-14.52,0,12.92,12.92,0,0,1-5-5.05,15.41,15.41,0,0,1-1.77-7.53V112.86H183.28v36.25a25.07,25.07,0,0,0,2.79,12,20.41,20.41,0,0,0,7.75,8.12,21.84,21.84,0,0,0,11.29,2.9,20.51,20.51,0,0,0,11.19-3.06,16.6,16.6,0,0,0,5.38-5.46v7.23h9.79v-58H221.36Z"/><path class="cls-1" d="M246.85,175.36q0,5.05-2.85,7.53a10.84,10.84,0,0,1-7.37,2.48,28.3,28.3,0,0,1-4.3-.33v9c.64.14,1.43.27,2.36.38a23.43,23.43,0,0,0,2.37.16,22.62,22.62,0,0,0,10.22-2.26,17.11,17.11,0,0,0,7.1-6.51A19.87,19.87,0,0,0,257,175.36v-62.5H246.85Z"/><rect class="cls-1" x="246.85" y="90.7" width="10.11" height="12.91"/><path class="cls-1" d="M325.86,126.2a28.91,28.91,0,0,0-10.7-10.7,29.9,29.9,0,0,0-15.28-3.93,29.45,29.45,0,0,0-15.17,4A29.6,29.6,0,0,0,270,141.8a30.27,30.27,0,0,0,4,15.6,29.41,29.41,0,0,0,25.87,14.73,29.19,29.19,0,0,0,15-3.92,30.28,30.28,0,0,0,10.81-10.76,29.92,29.92,0,0,0,4.09-15.65A30.54,30.54,0,0,0,325.86,126.2Zm-9.25,26.14a19.05,19.05,0,0,1-6.89,7.42,18.27,18.27,0,0,1-9.84,2.69,18.06,18.06,0,0,1-9.73-2.69,19.4,19.4,0,0,1-6.94-7.42,21.65,21.65,0,0,1-2.58-10.54,21.1,21.1,0,0,1,2.58-10.44,19.67,19.67,0,0,1,6.94-7.31,18.15,18.15,0,0,1,9.73-2.69,18.36,18.36,0,0,1,9.84,2.69,19.31,19.31,0,0,1,6.89,7.31,21.5,21.5,0,0,1,2.53,10.44A22.07,22.07,0,0,1,316.61,152.34Z"/><polygon class="cls-2" points="27 90.73 9.67 90.73 0 90.73 0 100.56 0 117.73 9.67 117.73 9.67 100.56 27 100.56 27 90.73"/><path class="cls-2" d="M343.78,185.78v-4.51a9,9,0,0,0,5.22-3.5,13.49,13.49,0,0,0,2.2-6.94h-5.27V157.92h10.44v9.15q0,7.74-3.18,12.53A14.57,14.57,0,0,1,343.78,185.78Zm2.15-59.91v-13h10.44v13Z"/></g></g></svg>